PathFileType	4	(X/Y/Z)	./resultDataOpenSim/trcMotMarkerGrf/sub10/qtm-02-02.trc
DataRate	CameraRate	NumFrames	NumMarkers	Units	OrigDataRate	OrigDataStartFrame	OrigNumFrames
250.000000	250.000000	12	24	m	250.000000	369	491
Frame#	Time	L.Toe.Tip			R.Toe.Tip			L.Ankle.Lat			R.Ankle.Lat			L.Ankle.Med			R.Ankle.Med			L.Heel			R.Heel			L.Knee.Lat			R.Knee.Lat			L.Knee.Med			R.Knee.Med			L.Thigh.Upper			R.Thigh.Upper			L.ASIS			R.ASIS			V.Sacral			L.Acromium			R.Acromium			C7			L.Elbow			R.Elbow			L.Wrist.Lat			R.Wrist.Lat
		X1	Y1	Z1	X2	Y2	Z2	X3	Y3	Z3	X4	Y4	Z4	X5	Y5	Z5	X6	Y6	Z6	X7	Y7	Z7	X8	Y8	Z8	X9	Y9	Z9	X10	Y10	Z10	X11	Y11	Z11	X12	Y12	Z12	X13	Y13	Z13	X14	Y14	Z14	X15	Y15	Z15	X16	Y16	Z16	X17	Y17	Z17	X18	Y18	Z18	X19	Y19	Z19	X20	Y20	Z20	X21	Y21	Z21	X22	Y22	Z22	X23	Y23	Z23	X24	Y24	Z24

369	1.472	0.77726349	0.07005236	-0.16465208	0.86705884	0.039080965	-0.020218036	0.6814094	0.16434057	-0.17423402	0.72579633	0.053210522	0.026353832	0.71344658	0.17282083	-0.095313525	0.74134426	0.084408749	-0.05632708	0.61686921	0.16827642	-0.12124472	0.67320186	0.031056979	-0.016987711	0.8971423	0.48114255	-0.21042792	0.7720564	0.45350332	0.079882466	0.92738821	0.45101832	-0.095157197	0.76396978	0.45918064	-0.049708393	0.77698969	0.84330565	-0.24839733	0.79859213	0.87068594	0.13062988	0.8282738	0.96202046	-0.1906061	0.86146439	0.9652651	0.049206704	0.64363656	0.97155024	-0.045644126	0.73840649	1.4422922	-0.21586884	0.75344891	1.4232595	0.10921453	0.66179075	1.4533878	-0.052480871	0.64424911	1.119319	-0.295635	0.70534618	1.0762154	0.17422031	0.75657965	0.90093201	-0.30050436	0.8720354	0.90060419	0.22335054
370	1.476	0.79585101	0.06889967	-0.16501728	0.86709868	0.03899772	-0.020175634	0.69754803	0.16049045	-0.17392106	0.72582254	0.053283999	0.026245602	0.72917966	0.16971281	-0.094848146	0.74136283	0.084414254	-0.056360468	0.63327689	0.16255984	-0.12096079	0.67345399	0.031166619	-0.016962493	0.90674078	0.48237032	-0.21015565	0.77351587	0.45345542	0.079980177	0.9373019	0.45268853	-0.095100689	0.76674479	0.45889881	-0.049688131	0.78507931	0.84405335	-0.24877317	0.801992	0.87023946	0.13072026	0.8350858	0.96232902	-0.18959568	0.86589047	0.96485065	0.050479195	0.64973242	0.97107481	-0.047718089	0.74387104	1.4421528	-0.215692	0.75868223	1.4234303	0.10940998	0.66728981	1.4533256	-0.052373776	0.64708049	1.1199313	-0.29605132	0.71333956	1.0758511	0.17478167	0.75776584	0.90081741	-0.30171681	0.88321496	0.90273514	0.22240813
371	1.48	0.81442553	0.067715748	-0.16539179	0.86715178	0.038880406	-0.020157889	0.71383501	0.1565866	-0.1736061	0.72585761	0.053349471	0.026118884	0.74519608	0.16649615	-0.094441096	0.74134699	0.084428561	-0.056378422	0.64994892	0.15675069	-0.12036532	0.673764	0.031174871	-0.016827619	0.9163237	0.48349417	-0.20988209	0.77508188	0.45338438	0.080021521	0.94745534	0.45430715	-0.094879709	0.76955679	0.4586433	-0.049740231	0.79288744	0.84466204	-0.24901612	0.80538969	0.86983829	0.13080062	0.84186728	0.96253716	-0.18859395	0.87029434	0.96441278	0.051728059	0.65573403	0.97047157	-0.04967469	0.7493508	1.4419375	-0.21551113	0.76392569	1.4235195	0.10960916	0.67279519	1.4532031	-0.052278974	0.64985794	1.1204676	-0.29664044	0.72122281	1.075368	0.17531985	0.75883057	0.90064031	-0.30284113	0.89437432	0.90487777	0.22145307
372	1.484	0.83309033	0.06655335	-0.16576566	0.86723149	0.038746242	-0.020169426	0.73027825	0.15264798	-0.17329128	0.72590005	0.053411829	0.025973454	0.76146556	0.16321571	-0.094110561	0.74130684	0.084443724	-0.056434522	0.66673544	0.15094642	-0.11955232	0.6740715	0.031117358	-0.016720961	0.92580827	0.48451499	-0.20961171	0.77676289	0.4532884	0.080009313	0.95757826	0.45590977	-0.094414225	0.77240004	0.45840896	-0.049870138	0.80055942	0.84515547	-0.24917352	0.80890587	0.86950978	0.13083124	0.84862244	0.9626407	-0.1876063	0.87467957	0.96395531	0.052953654	0.66158145	0.96975685	-0.051459811	0.75484729	1.4416381	-0.21533369	0.7691706	1.4235307	0.1098071	0.67830734	1.4530227	-0.052196065	0.6526889	1.1209333	-0.29723633	0.72903842	1.0747843	0.1758278	0.76003397	0.90042804	-0.30398293	0.90554678	0.90703534	0.2204835
373	1.488	0.85200136	0.06548067	-0.16613457	0.86732485	0.03863287	-0.020192509	0.74689214	0.14866715	-0.17299499	0.72594616	0.053479261	0.025812848	0.77792256	0.15992329	-0.093842441	0.74122411	0.084457765	-0.056579833	0.68347942	0.14519206	-0.1186966	0.67425423	0.031052803	-0.016786646	0.93507582	0.48544107	-0.20935722	0.77856166	0.45316757	0.079942644	0.96751633	0.45749683	-0.093757355	0.7753209	0.45816616	-0.049990247	0.80823678	0.84555912	-0.24929888	0.81250775	0.86924545	0.13082322	0.85535726	0.96264114	-0.18663826	0.87904322	0.96348152	0.054160192	0.6672529	0.96897306	-0.053048293	0.76035762	1.4412477	-0.21516	0.77441849	1.4234674	0.11000459	0.68382282	1.4527811	-0.052123605	0.65567299	1.1213432	-0.29767889	0.7368751	1.074145	0.17629046	0.76145501	0.90019204	-0.30518118	0.91674061	0.90920503	0.21948868
374	1.492	0.8712323	0.064541902	-0.16649573	0.86740558	0.038572348	-0.020201891	0.76368835	0.14463204	-0.17273868	0.72599282	0.053554738	0.025644236	0.79451808	0.15664722	-0.0936238	0.74112061	0.08447973	-0.05680636	0.70019461	0.13946772	-0.11791763	0.67427799	0.031016084	-0.017040706	0.94407983	0.48626402	-0.20913018	0.78047168	0.45301712	0.079817562	0.97729365	0.45899896	-0.093104657	0.77840424	0.45785834	-0.049934444	0.81598719	0.84588101	-0.24942406	0.81587498	0.8689763	0.13090832	0.86207981	0.96255232	-0.18569811	0.8833768	0.96299154	0.055345842	0.67278159	0.96817909	-0.05446822	0.76587782	1.440772	-0.21498666	0.77967533	1.4233303	0.11020797	0.68932988	1.452469	-0.052053294	0.65882362	1.1217072	-0.29795301	0.74477516	1.0734658	0.17671499	0.76303116	0.89991825	-0.30641547	0.92788915	0.91136968	0.21846374
375	1.496	0.89066079	0.063726464	-0.16683201	0.86746332	0.038568913	-0.02018499	0.78064647	0.14057834	-0.17252193	0.72604282	0.053632074	0.025473894	0.81123821	0.15340138	-0.093464753	0.74106921	0.08451989	-0.057049724	0.71703669	0.13377848	-0.11729702	0.67422556	0.03103092	-0.017360041	0.95283837	0.48696645	-0.20892872	0.78248177	0.45283074	0.079641854	0.98684562	0.46031035	-0.092648331	0.78165351	0.45744349	-0.049673707	0.82380941	0.84611721	-0.24955338	0.81861757	0.86860408	0.13125492	0.86880117	0.96239332	-0.18479719	0.88767607	0.96248336	0.056501862	0.67823698	0.9674116	-0.055792842	0.77141182	1.4402222	-0.21481438	0.78494298	1.4231227	0.11042027	0.69482227	1.4520828	-0.051976038	0.66208684	1.1220276	-0.29812372	0.75275393	1.0727083	0.1771829	0.76468478	0.89958972	-0.30765171	0.93891288	0.9135108	0.21741108
376	1.5	0.91007105	0.062991615	-0.16711634	0.86751699	0.038601514	-0.020146546	0.79770334	0.13657788	-0.17231678	0.72610426	0.053702568	0.025303968	0.8280893	0.15020036	-0.093390725	0.74111851	0.084564862	-0.057270254	0.73415616	0.12813033	-0.11681686	0.67419556	0.031117111	-0.017619972	0.96138606	0.48753579	-0.20873546	0.78457827	0.45261091	0.079439976	0.99594815	0.46137064	-0.092383504	0.78493898	0.45697014	-0.049447357	0.83167222	0.84626546	-0.24968052	0.82093494	0.86813131	0.13179284	0.87551986	0.9621784	-0.1839433	0.89194523	0.96195709	0.057619624	0.68369211	0.96667334	-0.057071488	0.77696753	1.4396055	-0.21464529	0.79021894	1.4228523	0.11063589	0.70031462	1.4516328	-0.051893962	0.66540661	1.1223037	-0.29822788	0.76086437	1.0717918	0.17787488	0.76636479	0.89920484	-0.3088659	0.94981086	0.91562995	0.21633348
377	1.504	0.92936393	0.062317866	-0.16733857	0.86761011	0.038646706	-0.020100432	0.81481373	0.13265118	-0.1721012	0.72618283	0.053764558	0.025132265	0.84511066	0.14706661	-0.093399907	0.74125661	0.084583635	-0.057483828	0.75166351	0.12244632	-0.11634738	0.67420444	0.031260064	-0.017825657	0.96977257	0.48796501	-0.20853026	0.7867511	0.45237057	0.079235901	1.0044542	0.4622001	-0.092175159	0.78811276	0.45654622	-0.049540806	0.8395371	0.84632823	-0.24979841	0.82359947	0.86766776	0.1322106	0.8822042	0.96190978	-0.18312781	0.89619032	0.96141642	0.058696346	0.68921564	0.9659778	-0.058256961	0.78254319	1.4389253	-0.214479	0.79550243	1.4225225	0.11084569	0.70582603	1.4511352	-0.051816182	0.66876194	1.1225335	-0.29828071	0.76916548	1.0706567	0.17894676	0.76805064	0.89877355	-0.31005001	0.96064099	0.91774285	0.2152308
378	1.508	0.94858481	0.061719675	-0.16751426	0.86778432	0.038694393	-0.020059629	0.83200149	0.12875254	-0.17189184	0.72628041	0.053821968	0.024950607	0.86237952	0.14401936	-0.093409451	0.74144012	0.084563475	-0.057711225	0.76956772	0.11664509	-0.11583178	0.67418603	0.031431937	-0.018088586	0.97804738	0.48825589	-0.20830796	0.78900584	0.45212075	0.079030079	1.0125277	0.46287433	-0.091955387	0.79114912	0.45621298	-0.049966232	0.84734387	0.84630592	-0.24988319	0.82696793	0.86726244	0.13234207	0.8888208	0.96157427	-0.18233296	0.90041281	0.96086704	0.059734944	0.69484874	0.96535058	-0.059277678	0.78813011	1.4381818	-0.2143177	0.80079898	1.4221289	0.11104858	0.71135174	1.4505957	-0.051746357	0.67215682	1.1227155	-0.29831046	0.7776134	1.0693653	0.18028944	0.76974925	0.89830181	-0.31120655	0.97144159	0.91985961	0.21410049
379	1.512	0.96780852	0.061215497	-0.16766586	0.86802326	0.038740307	-0.020024385	0.84931547	0.12485236	-0.17172397	0.72640023	0.053874728	0.024746795	0.87987289	0.14103915	-0.093236392	0.7416403	0.08451838	-0.057943754	0.78770145	0.11077894	-0.11537201	0.67407809	0.0316259	-0.018489521	0.98623347	0.48841851	-0.20807476	0.79135266	0.45185965	0.078800224	1.0204844	0.46345743	-0.091726666	0.79413737	0.4559182	-0.050490882	0.8550305	0.84619611	-0.24990201	0.83065901	0.86687089	0.13230511	0.89537341	0.96116065	-0.18156309	0.90461068	0.96031356	0.060738555	0.70054936	0.96475389	-0.060203769	0.79372911	1.4373732	-0.21416651	0.80611585	1.4216669	0.1112529	0.71686805	1.4500082	-0.051682123	0.67559712	1.1228467	-0.29834394	0.78605388	1.0680812	0.18154887	0.77147445	0.89778796	-0.31234246	0.98220326	0.92198393	0.2129382
380	1.516	0.98707605	0.060813763	-0.16780188	0.86822497	0.038777831	-0.019982999	0.86677682	0.12097039	-0.17161474	0.72653354	0.053926326	0.024527152	0.89723224	0.13803966	-0.092559924	0.74186905	0.084469823	-0.058148646	0.8058557	0.10500473	-0.11509494	0.67390524	0.031832399	-0.01897629	0.99433689	0.48846289	-0.20782764	0.79378223	0.45157695	0.07852632	1.0284746	0.46395361	-0.091472544	0.79715433	0.45561529	-0.050931244	0.86259217	0.84600127	-0.24985587	0.83423017	0.86645138	0.1322635	0.90187705	0.96068145	-0.18085031	0.90878455	0.95975613	0.06170385	0.70620422	0.9640852	-0.061228419	0.79935064	1.436503	-0.2140276	0.81145371	1.4211382	0.11146269	0.72236332	1.4493641	-0.051621758	0.6790873	1.1229212	-0.29837771	0.79435463	1.0669131	0.18246196	0.77323431	0.8972312	-0.31346335	0.99289455	0.92411461	0.21173917
